<svg id="Capa_1" enable-background="new 0 0 512 512" height="512" viewBox="0 0 512 512" width="512" xmlns="http://www.w3.org/2000/svg"><g><path d="m386.321 512h-260.644c21.159-35.766 56.613-62.071 98.501-71.034v-55.148h63.643v55.148c41.887 8.963 77.341 35.268 98.5 71.034z" fill="#61a2f9"/><path d="m241.763 385.813v55.153c-18.751 8.959-34.612 35.27-44.085 71.034h-72.001c21.158-35.764 56.613-62.075 98.498-71.034v-55.153z" fill="#5490f9"/><path d="m288.678 420.092h-66.548c-7.272 0-13.167-5.895-13.167-13.167v-7.942c0-7.272 5.895-13.167 13.167-13.167h66.549c7.272 0 13.167 5.895 13.167 13.167v7.942c-.001 7.272-5.896 13.167-13.168 13.167z" fill="#61a2f9"/><path d="m261.123 420.096h-38.994c-7.272 0-13.166-5.894-13.166-13.166v-7.941c0-7.272 5.894-13.176 13.166-13.176h38.994c-7.272 0-13.166 5.904-13.166 13.176v7.941c0 7.272 5.893 13.166 13.166 13.166z" fill="#5490f9"/><g fill="#ffcbbe"><circle cx="397.454" cy="273.251" r="40.746"/><circle cx="114.546" cy="273.251" r="40.746"/></g><g fill="#eaac9d"><path d="m136.423 284.718c-2.796 0-5.508-1.476-6.964-4.092-2.498-4.493-6.793-6.986-13.128-7.622-5.184-.521-9.671.501-9.714.511-4.272 1.046-8.58-1.564-9.627-5.833-1.048-4.269 1.563-8.58 5.833-9.627.712-.175 7.188-1.686 15.1-.89 11.575 1.163 20.375 6.6 25.449 15.724 2.137 3.842.754 8.688-3.088 10.825-1.224.68-2.552 1.003-3.861 1.004z"/><path d="m375.586 284.718c-1.309 0-2.636-.324-3.862-1.005-3.841-2.137-5.224-6.983-3.087-10.825 5.075-9.124 13.875-14.561 25.45-15.724 7.909-.795 14.387.715 15.1.89 4.269 1.048 6.881 5.358 5.833 9.627-1.046 4.258-5.34 6.866-9.594 5.841-.158-.036-4.812-1.087-10.127-.479-6.132.702-10.302 3.182-12.749 7.582-1.456 2.617-4.168 4.092-6.964 4.093z"/></g><path d="m134.954 191.161 14.112-84.384h210.684l17.298 88.531v81.205c0 61.604-49.94 111.544-111.544 111.544h-19.01c-61.604 0-111.544-49.94-111.544-111.544z" fill="#ffddce"/><path d="m290.857 385.153c-8.147 1.903-16.632 2.901-25.345 2.901h-19.008c-61.612 0-111.55-49.938-111.55-111.54v-85.352c0-66.488 53.898-120.386 120.386-120.386h1.327c11.88 0 23.349 1.718 34.19 4.937-49.835 14.719-86.196 60.841-86.196 115.449v85.352c0 52.879 36.803 97.17 86.196 108.639z" fill="#ffcbbe"/><g fill="#2b4d66"><ellipse cx="313.493" cy="250.84" rx="13.498" ry="18.493"/><ellipse cx="198.506" cy="250.84" rx="13.498" ry="18.493"/></g><path d="m329.251 218.799c-1.978 0-3.955-.754-5.464-2.263-2.963-2.963-6.901-4.595-11.092-4.595-4.189 0-8.128 1.632-11.091 4.595-3.018 3.017-7.91 3.018-10.927 0-3.018-3.017-3.018-7.909-.001-10.927 5.881-5.881 13.701-9.121 22.018-9.121 8.318 0 16.138 3.239 22.019 9.121 3.017 3.018 3.017 7.909-.001 10.927-1.507 1.509-3.484 2.263-5.461 2.263z" fill="#aa7a63"/><path d="m214.696 218.799c-1.978 0-3.955-.754-5.464-2.263-2.963-2.963-6.901-4.595-11.092-4.595s-8.129 1.632-11.093 4.595c-3.016 3.018-7.908 3.018-10.927 0-3.017-3.018-3.017-7.909.001-10.927 5.881-5.882 13.701-9.121 22.018-9.121 8.318 0 16.138 3.239 22.019 9.121 3.017 3.018 3.017 7.909-.001 10.927-1.506 1.509-3.484 2.263-5.461 2.263z" fill="#aa7a63"/><path d="m256 325.943c-14.268 0-27.063-9.534-31.116-23.184-1.215-4.091 1.117-8.391 5.207-9.606 4.095-1.216 8.392 1.118 9.606 5.208 2.121 7.142 8.825 12.13 16.303 12.13 7.469 0 14.174-4.991 16.305-12.138 1.22-4.089 5.527-6.413 9.612-5.197 4.09 1.219 6.417 5.523 5.197 9.612-4.069 13.645-16.863 23.175-31.114 23.175z" fill="#eaa598"/><path d="m377.048 90.166v105.142c0 12.672-17.98 15.11-21.374 2.921-.01-.021-.01-.041-.021-.062l-35.938-131.638h33.697c13.052 0 23.636 10.584 23.636 23.637z" fill="#986b54"/><path d="m134.951 90.164c0-13.054 10.582-23.636 23.637-23.636 5.143 0 9.854 1.489 13.806 4.011 9.634-40.451 46.003-70.535 89.403-70.535h113.356c26.59 0 48.145 21.555 48.145 48.145 0 41.201-33.4 74.6-74.6 74.6h-133.401c-22.649 0-42.498 15.155-48.464 37.005z" fill="#aa7a63"/><path d="m323.49 122.752h-108.197c-13.444 0-25.91 5.338-35.065 14.256-1.934 1.877-3.718 3.92-5.318 6.089-3.631 4.896-6.408 10.512-8.085 16.653l-10.481 38.418c-.021.062-.031.123-.051.175-3.466 12.065-21.343 9.597-21.343-3.034v-105.143c0-13.053 10.584-23.637 23.637-23.637 2.571 0 5.04.37 7.344 1.059 2.325.689 4.484 1.687 6.46 2.952 9.637-40.454 46.008-70.54 89.404-70.54h35.239c-26.589 0-48.148 21.559-48.148 48.148 0 20.603 8.352 39.251 21.847 52.756 13.506 13.495 32.154 21.848 52.757 21.848z" fill="#986b54"/></g></svg>